HIERARCHY
ROOT Hips
{
	OFFSET 0.000000 0.000000 0.000000 
	CHANNELS 6 Xposition Yposition Zposition Zrotation Yrotation Xrotation
	JOINT LeftUpLeg
	{
		OFFSET 1.363060 -1.794630 0.839290 
		CHANNELS 3 Zrotation Yrotation Xrotation
		JOINT LeftLeg
		{
			OFFSET 2.448110 -6.726130 0.000000 
			CHANNELS 3 Zrotation Yrotation Xrotation
			JOINT LeftFoot
			{
				OFFSET 2.562200 -7.039590 0.000000 
				CHANNELS 3 Zrotation Yrotation Xrotation
				JOINT LeftToeBase
				{
					OFFSET 0.157640 -0.433110 2.322550 
					CHANNELS 3 Zrotation Yrotation Xrotation
					End Site
					{
						OFFSET 0.000000 0.000000 0.000000 
					}
				}
			}
		}
	}
	JOINT RightUpLeg
	{
		OFFSET -1.305520 -1.794630 0.839290 
		CHANNELS 3 Zrotation Yrotation Xrotation
		JOINT RightLeg
		{
			OFFSET -2.542530 -6.985550 0.000000 
			CHANNELS 3 Zrotation Yrotation Xrotation
			JOINT RightFoot
			{
				OFFSET -2.568260 -7.056230 0.000000 
				CHANNELS 3 Zrotation Yrotation Xrotation
				JOINT RightToeBase
				{
					OFFSET -0.164730 -0.452590 2.363150 
					CHANNELS 3 Zrotation Yrotation Xrotation
					End Site
					{
						OFFSET 0.000000 0.000000 0.000000 
					}
				}
			}
		}
	}
	JOINT Spine
	{
		OFFSET 0.028270 2.035590 -0.193380 
		CHANNELS 3 Zrotation Yrotation Xrotation
		JOINT Spine1
		{
			OFFSET 0.056720 2.048850 -0.042750 
			CHANNELS 3 Zrotation Yrotation Xrotation
			JOINT Neck1
			{
				OFFSET -0.054170 1.746240 0.172020 
				CHANNELS 3 Zrotation Yrotation Xrotation
				JOINT Head
				{
					OFFSET 0.104070 1.761360 -0.123970 
					CHANNELS 3 Zrotation Yrotation Xrotation
					End Site
					{
						OFFSET 0.000000 0.000000 0.000000 
					}
				}
			}
			JOINT LeftArm
			{
				OFFSET 3.362410 1.200890 -0.311210 
				CHANNELS 3 Zrotation Yrotation Xrotation
				JOINT LeftForeArm
				{
					OFFSET 4.983000 -0.000000 -0.000000 
					CHANNELS 3 Zrotation Yrotation Xrotation
					JOINT LeftHand
					{
						OFFSET 3.483560 -0.000000 -0.000000 
						CHANNELS 3 Zrotation Yrotation Xrotation
						JOINT LeftHandIndex1
						{
							OFFSET 0.715260 -0.000000 -0.000000 
							CHANNELS 3 Zrotation Yrotation Xrotation
							End Site
							{
								OFFSET 0.000000 0.000000 0.000000 
							}
						}
					}
				}
			}
			JOINT RightArm
			{
				OFFSET -3.136600 1.374050 -0.404650 
				CHANNELS 3 Zrotation Yrotation Xrotation
				JOINT RightForeArm
				{
					OFFSET -5.241900 -0.000000 -0.000000 
					CHANNELS 3 Zrotation Yrotation Xrotation
					JOINT RightHand
					{
						OFFSET -3.444170 -0.000000 -0.000000 
						CHANNELS 3 Zrotation Yrotation Xrotation
						JOINT RightHandIndex1
						{
							OFFSET -0.622530 -0.000000 -0.000000 
							CHANNELS 3 Zrotation Yrotation Xrotation
							End Site
							{
								OFFSET 0.000000 0.000000 0.000000 
							}
						}
					}
				}
			}
		}
	}
}
MOTION
Frames: 10
Frame Time: 0.041667
21.393291 17.219092 -26.889716 -0.204228 -29.517702 15.669566 0.364872 -6.270662 -35.330412 3.432561 14.219580 39.361974 2.338985 -5.592862 0.775190 3.179000 -10.979300 -32.210100 4.110601 6.537535 -34.720498 -4.415493 -14.934944 42.937914 0.827535 -6.039423 -8.254890 -1.804900 8.447200 -24.080900 0.764580 0.513665 -2.921435 -4.219822 0.445550 -8.004844 1.193675 9.790594 1.843782 -8.502400 3.450600 0.485500 -9.369157 0.422613 -23.553603 6.937566 -13.713492 -4.903517 0.219898 -11.908886 -52.099750 -7.125000 0.000000 0.000000 8.557834 -0.539296 -44.692372 -6.038615 9.239426 -3.263290 6.709200 -0.967264 -5.910844 7.125000 0.000000 0.000000 
21.405046 17.211394 -26.895333 -0.314655 -29.599923 15.611344 0.372657 -6.129177 -35.187352 3.460291 14.234620 39.437569 2.310158 -5.413058 0.480659 3.442900 -11.379700 -33.571300 4.181551 6.587593 -34.705137 -4.451062 -14.980056 43.083211 0.618038 -5.425871 -8.322592 -1.650400 8.096300 -23.007000 0.756786 0.557805 -2.832075 -4.379260 0.475923 -7.650557 1.254410 9.540941 1.914811 -8.520600 3.339100 0.332300 -9.590434 -0.134736 -23.011853 6.876165 -13.723046 -4.843969 0.124405 -11.781485 -51.741475 -7.125000 0.000000 0.000000 8.700528 0.260174 -44.406939 -5.903059 9.186093 -3.260194 6.757495 -1.145181 -5.316845 7.125000 0.000000 0.000000 
21.412535 17.207442 -26.905111 -0.512513 -29.459370 15.649622 0.517175 -6.094237 -35.163524 3.471464 14.237481 39.434900 2.352965 -5.546603 0.437854 3.483100 -11.438800 -33.774600 4.386922 6.542864 -34.705494 -4.480749 -15.018201 43.220681 0.532756 -5.175746 -8.369349 -1.586500 7.945600 -22.549000 0.752595 0.548747 -2.753597 -4.560884 0.476617 -7.290588 1.338731 9.363990 1.968708 -8.501700 3.263800 0.183300 -9.858871 -0.720505 -22.525816 6.949066 -13.875686 -4.844298 0.061421 -11.636915 -51.784215 -7.125000 0.000000 0.000000 9.068324 0.958404 -43.648035 -5.953387 9.382072 -3.323649 6.736589 -1.192591 -5.163964 7.125000 0.000000 0.000000 
21.414512 17.200056 -26.916345 -0.485018 -29.295799 15.598909 0.485823 -6.114228 -35.159895 3.466419 14.242301 39.432701 2.301706 -5.334069 0.321453 3.755200 -11.827300 -35.123700 4.402913 6.417257 -34.746013 -4.518203 -15.056853 43.350852 0.541508 -5.195587 -8.335277 -1.644400 8.082300 -22.964400 0.738816 0.517071 -2.684181 -4.613968 0.466568 -6.958887 1.489514 9.095185 2.057717 -8.428500 3.159400 0.038800 -10.059040 -1.455143 -22.421227 6.964401 -13.894060 -4.774635 -0.050062 -11.262933 -51.454186 -7.125000 0.000000 0.000000 9.470189 1.579354 -42.644976 -6.026378 9.605064 -3.390640 6.754508 -1.122196 -5.632901 7.125000 0.000000 0.000000 
21.413784 17.191422 -26.929348 -0.442866 -29.228678 15.517090 0.440276 -6.090472 -35.114727 3.451249 14.237892 39.401974 2.181643 -4.850012 0.172353 4.159700 -12.370000 -37.053700 4.388188 6.400206 -34.759705 -4.549444 -15.092668 43.464567 0.603652 -5.383345 -8.355758 -1.716700 8.249300 -23.473900 0.719182 0.524911 -2.620295 -4.697453 0.465218 -6.640018 1.641238 8.747832 2.267243 -8.396100 3.031200 0.058700 -10.126452 -2.337536 -22.780040 6.916943 -13.790354 -4.695024 -0.207854 -11.026585 -50.721443 -7.125000 0.000000 0.000000 9.740729 2.121557 -42.067612 -6.006247 9.664364 -3.407365 6.747111 -1.132324 -5.770045 7.125000 0.000000 0.000000 
21.417008 17.188406 -26.942975 -0.521383 -29.124916 15.511242 0.525659 -6.070303 -35.083293 3.434710 14.219916 39.328624 2.125821 -4.619305 0.167801 4.329000 -12.585800 -37.837000 4.503231 6.405247 -34.767181 -4.572368 -15.124906 43.570867 0.598253 -5.377276 -8.432895 -1.667300 8.135700 -23.127000 0.747108 0.323262 -2.577641 -4.708861 0.390258 -6.565785 1.801587 8.742927 2.316779 -8.223900 3.077200 -0.242500 -10.579050 -2.612127 -23.126827 6.954287 -13.902577 -4.787743 -0.200131 -11.492378 -50.551902 -7.125000 0.000000 0.000000 9.836158 2.794137 -41.117796 -5.933110 9.740711 -3.390689 6.608679 -1.283200 -5.127582 7.125000 0.000000 0.000000 
21.421585 17.185909 -26.954417 -0.491403 -29.016378 15.490106 0.512206 -6.113806 -35.063565 3.408498 14.198536 39.245765 2.147975 -4.711186 0.283533 4.255800 -12.493200 -37.499900 4.491469 6.331964 -34.778193 -4.594279 -15.148211 43.644827 0.561846 -5.268674 -8.437215 -1.600800 7.979800 -22.652900 0.721282 0.367731 -2.504041 -4.883174 0.413116 -6.206225 1.916654 8.560795 2.336266 -8.191800 2.988800 -0.371400 -10.625988 -3.476522 -23.070882 6.970450 -13.905023 -4.699354 -0.233438 -10.953641 -50.303139 -7.125000 0.000000 0.000000 10.121295 3.277301 -40.734315 -5.927964 9.817708 -3.399285 6.514349 -1.382708 -4.774115 7.125000 0.000000 0.000000 
21.423770 17.182996 -26.965340 -0.293437 -28.989824 15.397190 0.360345 -6.140168 -35.074892 3.375964 14.175680 39.169542 2.175328 -4.838862 0.403096 4.156500 -12.365800 -37.038500 4.327664 6.289683 -34.805057 -4.603899 -15.160105 43.659808 0.667466 -5.587261 -8.444223 -1.665300 8.131200 -23.113100 0.709101 0.341339 -2.459247 -4.907171 0.410918 -6.022342 2.019699 8.437781 2.438725 -8.155500 2.954600 -0.441800 -10.849505 -4.089910 -22.730738 6.964565 -13.911391 -4.658529 -0.444758 -10.919291 -50.032543 -7.125000 0.000000 0.000000 10.344969 3.896332 -40.358424 -5.840998 9.785264 -3.389895 6.477616 -1.521442 -4.094393 7.125000 0.000000 0.000000 
21.425642 17.185805 -26.974390 -0.159349 -29.063213 15.345543 0.213840 -6.071738 -35.061701 3.348279 14.154131 39.101511 2.128227 -4.643295 0.310964 4.256700 -12.494400 -37.504100 4.199008 6.323153 -34.840579 -4.601145 -15.167039 43.640781 0.741107 -5.803928 -8.411357 -1.757900 8.342400 -23.758900 0.692570 0.338916 -2.408312 -4.949694 0.424009 -5.751354 2.120865 8.289338 2.619929 -8.112100 2.920200 -0.427000 -11.113925 -4.667741 -22.376998 6.979309 -13.955107 -4.647109 -0.624563 -10.955092 -49.573718 -7.125000 0.000000 0.000000 10.626728 4.690186 -40.457370 -5.737857 9.679246 -3.369528 6.386577 -1.699986 -2.632819 7.125000 0.000000 0.000000 
21.428347 17.193503 -26.978135 -0.201724 -29.110131 15.340285 0.214676 -6.021547 -34.940924 3.332222 14.125911 39.035333 2.139320 -4.671430 0.372640 4.199100 -12.420700 -37.236900 4.232220 6.338422 -34.807282 -4.590819 -15.167739 43.613179 0.712345 -5.699334 -8.282112 -1.756500 8.339200 -23.749200 0.678919 0.290912 -2.340651 -5.040962 0.424864 -5.465858 2.176109 8.241612 2.650871 -8.062400 2.911100 -0.621300 -11.430420 -5.189058 -22.412050 6.980114 -13.966700 -4.599907 -0.722855 -10.839151 -49.033493 -7.125000 0.000000 0.000000 11.005045 5.708598 -40.457171 -5.735950 9.707618 -3.400352 6.316995 -1.801110 -1.674447 7.125000 0.000000 0.000000 
